<svg version="1.0" xmlns="http://www.w3.org/2000/svg" width="35.60" height="53" viewBox="0 0 223 332"><path fill="#c52c8f" d="M98.5 1.1C49.6 6.5 8.9 45.9 1.5 95-7 150.8 28.2 204.5 82.9 219.1l8.1 2.2V255H74.3c-14.9 0-17.1.2-21.1 2.1-6.4 3.2-9.7 8.6-9.7 16.4 0 5.2.5 6.8 2.9 10.3 4.9 7.1 8.5 8.2 27.9 8.2H91v12.5c0 14.3.9 17.4 6.3 22.2 3.2 2.8 9 5.3 12.2 5.3 3.2 0 9-2.5 12.2-5.3 5.4-4.8 6.3-7.9 6.3-22.2V292h17.3c14.6 0 17.8-.3 21.2-1.9 5.5-2.5 8.6-6.2 10-11.7 2.1-8.3-.2-14.8-7.1-20.1l-3.7-2.8-18.9-.3-18.8-.3v-16.5c0-12.3.3-16.6 1.3-16.8.6-.2 5.3-1.3 10.2-2.5 18-4.3 40.1-17.3 52.8-31.1 26.8-28.9 36.8-69.9 26.1-106.9a111.85 111.85 0 0 0-95.2-80C111.8-.1 110-.1 98.5 1.1zm35.8 40.2c22 7.2 39.5 24.6 47.4 47.2 2.6 7.4 2.8 9.1 2.8 23-.1 13.6-.3 15.7-2.8 23-8.2 24.4-28.7 43.3-53.5 49.1-9.6 2.3-25.7 2.1-35.6-.5-12.8-3.4-22.7-9.2-33.2-19.6-7.6-7.6-9.7-10.5-13.7-18.5-5.8-11.9-7.9-20.7-7.9-33.5 0-16.3 4.3-29.9 13.6-42.8 10.2-14.4 24.2-24 41.7-28.7 10.8-2.9 30.3-2.3 41.2 1.3z"/></svg>