<svg version="1.0" xmlns="http://www.w3.org/2000/svg" width="53" height="52.42" viewBox="0 0 275 272"><path fill="#5d4ac5" d="M191.9 1.9c-9 .5-11.1 1-14.2 3.1-9.1 6.2-10.9 18.8-4 27.1 4.7 5.5 9.2 6.9 23.3 6.9h12.5L194 54.5C185.5 63 178.1 70 177.7 70c-.5 0-2.8-1.4-5.3-3-6.8-4.7-20-10.7-29.9-13.5C85.9 37.3 26.2 68.6 7 124.5c-14.1 40.9-2.7 87 29.1 117 47.6 45 124.3 38.7 164.4-13.5 10.8-14.1 19.1-33.6 21.6-50.8 1.7-11.9.7-33.6-2-43.7-2.8-10.7-7.3-21.7-12.1-29.5l-3.9-6.5 16.2-16.3c8.9-8.9 16.5-16.2 16.9-16.2.5 0 .8 6.3.8 14 0 12 .3 14.6 2 17.9 6.8 13.4 26.4 13.2 32.9-.2 2.1-4.4 2.2-5.3 1.9-43.9l-.3-39.4-2.5-3.6c-1.3-2-4.2-4.8-6.4-6.2l-4-2.6-29.6.2c-16.2.1-34.3.4-40.1.7zM130.3 89c31.5 7.7 53.8 35 55.4 68 1 21.6-6.2 40.3-21.3 55.4-8.2 8.2-15.5 12.9-26.3 16.7a77 77 0 0 1-58.3-2.5c-17.2-7.7-31.3-23.9-37.7-43.2-9.9-29.4-.4-61 24.2-80.7 18-14.4 40.8-19.3 64-13.7z"/></svg>