<svg xmlns="http://www.w3.org/2000/svg" width="512" height="512" fill="#3b064c" style="shape-rendering:geometricPrecision;text-rendering:geometricPrecision;image-rendering:optimizeQuality;fill-rule:evenodd;clip-rule:evenodd"><path style="opacity:.989" d="M233.5-.5h44c100.3 12.48 171.8 64.48 214.5 156a279.07 279.07 0 0 1 19.5 78v44c-12.48 100.3-64.48 171.8-156 214.5a279.09 279.09 0 0 1-78 19.5h-44C133.2 499.02 61.7 447.02 19 355.5a279.1 279.1 0 0 1-19.5-78v-44C11.98 133.2 63.98 61.7 155.5 19a279.08 279.08 0 0 1 78-19.5Zm14 77c43.75-.71 73.25 19.29 88.5 60 9.9 47.05-6.6 81.22-49.5 102.5-43.36 13.44-77.86 1.6-103.5-35.5-19.9-40.4-13.74-76.24 18.5-107.5a94.3 94.3 0 0 1 46-19.5Zm-52 211c40-.17 80 0 120 .5 38.18 6.85 62.35 29.01 72.5 66.5 5.9 22.62-.92 40.12-20.5 52.5-55.1 38.3-114.43 46.64-178 25-24-8.9-44.83-22.4-62.5-40.5-6.6-12.09-7.93-24.75-4-38 10.76-36.94 34.93-58.94 72.5-66Z"/></svg>